HIERARCHY
ROOT Hips
{
 OFFSET 0.000000 0.000000 0.000000
 CHANNELS 6 Xposition Yposition Zposition Yrotation Xrotation Zrotation
 JOINT Chest
 {
  OFFSET 0.000000 9.585900 0.002600
  CHANNELS 3 Yrotation Xrotation Zrotation
  JOINT Chest2
  {
   OFFSET 0.000000 9.601200 -0.005300
   CHANNELS 3 Yrotation Xrotation Zrotation
   JOINT Chest3
   {
    OFFSET 0.000000 9.561800 0.000000
    CHANNELS 3 Yrotation Xrotation Zrotation
    JOINT Chest4
    {
     OFFSET 0.000000 9.552100 0.000000
     CHANNELS 3 Yrotation Xrotation Zrotation
     JOINT Neck
     {
      OFFSET 0.000000 14.453000 0.000000
      CHANNELS 3 Yrotation Xrotation Zrotation
      JOINT Head
      {
       OFFSET 0.000000 8.936500 -0.011300
       CHANNELS 3 Yrotation Xrotation Zrotation
       End Site
       {
        OFFSET 0.000000 17.073600 -0.006000
       }
      }
     }
     JOINT RightCollar
     {
      OFFSET -2.921100 9.558500 0.000000
      CHANNELS 3 Yrotation Xrotation Zrotation
      JOINT RightShoulder
      {
       OFFSET -13.519700 0.000000 0.000000
       CHANNELS 3 Yrotation Xrotation Zrotation
       JOINT RightElbow
       {
        OFFSET 0.000000 -29.696600 0.000000
        CHANNELS 3 Yrotation Xrotation Zrotation
        JOINT RightWrist
        {
         OFFSET 0.000000 -24.004700 0.000000
         CHANNELS 3 Yrotation Xrotation Zrotation
         End Site
         {
          OFFSET 0.000000 -17.728500 0.000000
         }
        }
       }
      }
     }
     JOINT LeftCollar
     {
      OFFSET 2.921100 9.558500 0.000000
      CHANNELS 3 Yrotation Xrotation Zrotation
      JOINT LeftShoulder
      {
       OFFSET 13.519700 0.000000 0.000000
       CHANNELS 3 Yrotation Xrotation Zrotation
       JOINT LeftElbow
       {
        OFFSET 0.000000 -29.696600 0.000000
        CHANNELS 3 Yrotation Xrotation Zrotation
        JOINT LeftWrist
        {
         OFFSET 0.000000 -24.004700 0.000000
         CHANNELS 3 Yrotation Xrotation Zrotation
         End Site
         {
          OFFSET 0.000000 -17.728500 0.000000
         }
        }
       }
      }
     }
    }
   }
  }
 }
 JOINT RightHip
 {
  OFFSET -7.771700 -0.012900 -0.001300
  CHANNELS 3 Yrotation Xrotation Zrotation
  JOINT RightKnee
  {
   OFFSET 0.000000 -40.869800 0.001200
   CHANNELS 3 Yrotation Xrotation Zrotation
   JOINT RightAnkle
   {
    OFFSET 0.000000 -39.717900 0.002100
    CHANNELS 3 Yrotation Xrotation Zrotation
    JOINT RightToe
    {
     OFFSET 0.000000 -4.965400 11.033500
     CHANNELS 3 Yrotation Xrotation Zrotation
     End Site
     {
      OFFSET 0.000000 -1.423100 5.872300
     }
    }
   }
  }
 }
 JOINT LeftHip
 {
  OFFSET 7.771700 -0.012900 -0.001300
  CHANNELS 3 Yrotation Xrotation Zrotation
  JOINT LeftKnee
  {
   OFFSET 0.000000 -40.869800 0.001200
   CHANNELS 3 Yrotation Xrotation Zrotation
   JOINT LeftAnkle
   {
    OFFSET 0.000000 -39.717900 0.002100
    CHANNELS 3 Yrotation Xrotation Zrotation
    JOINT LeftToe
    {
     OFFSET 0.000000 -4.965400 11.033500
     CHANNELS 3 Yrotation Xrotation Zrotation
     End Site
     {
      OFFSET 0.000000 -1.423100 5.872300
     }
    }
   }
  }
 }
}
MOTION
Frames: 6
Frame Time: 0.008333
0.000000 85.388000 0.000000 0.000000 -5.767877 0.000000 0.000000 11.653817 0.000000 0.000000 -5.885947 0.000000 0.000000 -0.000000 0.000000 0.000000 -0.000000 0.000000 0.000000 12.528835 0.000000 0.000000 0.711642 0.000000 0.000000 -0.000000 0.000000 0.000000 0.000000 -90.000000 0.000000 -2.309062 0.000000 0.000000 2.309062 0.000000 0.000000 -0.000000 0.000000 0.000000 -0.000000 90.000000 0.000000 -2.309062 0.000000 0.000000 2.309062 0.000000 0.000000 8.520406 0.000000 0.000000 1.905762 0.000000 -0.000000 -4.658285 0.000000 0.000000 -0.000000 0.000000 0.000000 8.520406 0.000000 0.000000 1.905762 0.000000 -0.000000 -4.658285 0.000000 0.000000 -0.000000 0.000000
-32.371668 51.527677 25.220931 177.492240 -22.746816 0.099364 -1.874975 12.375150 0.752165 -0.133416 0.922823 0.098301 -0.226703 1.575282 0.166526 -1.526079 11.185637 1.057561 -8.002327 19.939989 -1.842499 -8.332300 -4.257559 -0.137477 4.006400 16.092396 11.278742 22.672820 -2.109530 -38.239727 114.961131 -68.680355 -153.686337 -12.599941 1.060278 62.107792 0.280956 15.920317 -14.526464 -30.996741 2.455276 32.352594 157.039895 -67.397128 -121.324354 16.490456 4.016177 -25.819785 -14.633557 -60.109183 6.121463 -65.668961 83.448072 -73.735836 -3.186900 -7.375872 5.567926 0.178133 -0.394580 0.094395 8.151143 -58.117796 -6.307713 57.434749 86.673588 63.838343 -0.387599 -13.332073 -0.151990 0.122791 0.047893 -0.041216
-32.378797 51.525390 25.210216 177.563039 -22.901683 0.125728 -1.902521 12.377897 0.683587 -0.129381 0.916655 0.095679 -0.219942 1.565209 0.162133 -1.485853 11.156259 1.034584 -8.011314 20.025104 -1.828875 -8.376274 -4.141619 -0.124859 3.967104 16.138109 11.222494 21.505870 -2.376403 -38.738893 119.929142 -67.855556 -159.605529 -13.925660 0.518552 64.393078 0.399326 15.945886 -14.496450 -30.105053 2.384058 32.282193 159.696056 -64.654554 -124.082448 17.145797 3.293615 -24.323562 -14.527533 -59.975139 5.933406 -65.985131 83.456056 -74.066109 -3.206130 -7.413691 5.595548 0.186890 -0.388669 0.091942 8.089203 -57.962738 -6.374114 57.539776 86.669824 63.957106 -0.368728 -13.291577 -0.179772 0.135559 0.043465 -0.034601
-32.377850 51.518270 25.211682 177.535901 -22.999401 0.150445 -1.816622 12.323893 0.667534 -0.125120 0.910210 0.093004 -0.212747 1.554586 0.157661 -1.442600 11.125093 1.011019 -8.015976 20.102285 -1.814903 -8.343763 -4.070748 -0.122021 3.904987 16.194895 11.156337 20.188673 -2.741559 -39.199142 124.873472 -66.664559 -165.483617 -14.997949 0.003260 65.603803 0.548646 15.948544 -14.445030 -29.164024 2.291666 32.200416 162.472449 -62.011052 -126.917367 17.956081 2.403036 -22.760166 -14.433568 -59.886333 5.856084 -66.088674 83.459774 -74.172098 -3.189881 -7.487412 5.615410 0.159245 -0.328273 0.074220 8.068146 -57.869117 -6.371435 57.717776 86.648773 64.134334 -0.328779 -13.243694 -0.182427 0.075970 0.074065 -0.034865
-32.378300 51.510495 25.216807 177.579536 -23.090978 0.169464 -1.783971 12.264461 0.641511 -0.120397 0.903436 0.090470 -0.204811 1.543387 0.153386 -1.393715 11.092012 0.989455 -8.022736 20.168925 -1.807004 -8.333290 -4.005713 -0.117246 3.811999 16.237226 11.073069 18.690223 -3.213734 -39.614268 129.441961 -65.100828 -170.895787 -15.754317 -0.558892 65.603720 0.723170 15.919222 -14.367724 -28.139102 2.153874 32.132016 165.259200 -59.481512 -129.754253 18.910118 1.281390 -21.256547 -14.369741 -59.812807 5.741595 -66.191918 83.461211 -74.274832 -3.207468 -7.505218 5.619095 0.176493 -0.321612 0.075030 8.018611 -57.784123 -6.421174 57.637864 86.642109 64.078466 -0.323011 -13.198442 -0.205487 0.091185 0.104264 -0.029600
-32.379049 51.505567 25.218978 177.607166 -23.216939 0.212998 -1.722070 12.241660 0.609764 -0.115030 0.896420 0.088166 -0.195847 1.531740 0.149562 -1.336801 11.057559 0.971850 -8.036717 20.223873 -1.808708 -8.349755 -3.941387 -0.116311 3.681832 16.228627 10.966226 17.007837 -3.758335 -39.967549 133.299306 -63.200118 -175.485964 -16.191498 -1.276935 64.381168 0.918328 15.852696 -14.262851 -26.986501 1.932230 32.103163 167.935857 -57.065389 -132.518854 19.906174 -0.113257 -19.805127 -14.263881 -59.712542 5.588963 -66.361485 83.470793 -74.454299 -3.215690 -7.538787 5.630851 0.175256 -0.328083 0.072066 8.003566 -57.653508 -6.493423 57.512230 86.619838 63.972571 -0.311017 -13.142757 -0.224970 0.110558 0.082327 -0.043306
